<?xml version="1.0" encoding="UTF-8"?>
<svg id="Layer_1" data-name="Layer 1" xmlns="http://www.w3.org/2000/svg" viewBox="0 0 607.92 264.85">
  <defs>
    <style>
      .cls-1 {
        fill: #c83539;
      }

      .cls-2 {
        fill: #314054;
      }
    </style>
  </defs>
  <path class="cls-1" d="M82.52,9.9c2.48,0,4.91.13,7.32.36C81.35,5.45,72.37,1.36,61.09.27,25.74-3.13-2.91,25.77.24,61.13c.8,9.1,4.12,16.02,7.17,23.11C7.84,43.11,41.29,9.9,82.52,9.9"/>
  <path class="cls-1" d="M135.04,78.97c3.78,0,6.79,3.01,6.79,6.75v45.33c9.88-12.72,15.83-28.66,15.83-46.01,0-39.03-29.76-71.1-67.82-74.78,17.72,10.04,29.69,29.05,29.69,50.87,0,32.27-26.16,58.44-58.44,58.44-24.06,0-44.73-14.55-53.68-35.32,0,.26-.01.52-.01.79,0,41.49,33.64,75.13,75.13,75.13,17.25,0,33.09-5.87,45.77-15.64v-58.81c0-3.75,3.01-6.75,6.75-6.75"/>
  <path class="cls-2" d="M290.38,200.44c-3.74,0-6.75-3.04-6.75-6.78s3.01-6.75,6.75-6.75h95.46c6.64,0,11.66-4.47,11.66-10.83s-5.17-11.07-11.66-11.07h-76.86c-14.12,0-25.21-10.09-25.21-23.73s11.23-24.36,25.21-24.36h95.45c3.75,0,6.75,3.05,6.75,6.79s-3.01,6.75-6.75,6.75h-95.45c-7.08,0-11.66,4.47-11.66,10.82s4.87,10.2,11.66,10.2h76.86c13.97,0,25.2,11.07,25.2,24.61s-11.08,24.36-25.2,24.36h-95.46"/>
  <path class="cls-2" d="M437.26,88.4v-.29c0-3.74,3.01-6.75,6.75-6.75s6.75,3.01,6.75,6.75v.29c0,3.74-3.01,6.64-6.75,6.64s-6.75-2.9-6.75-6.64M437.26,193.66v-69.96c0-3.74,3.01-6.79,6.75-6.79s6.75,3.05,6.75,6.79v69.96c0,3.74-3.01,6.78-6.75,6.78s-6.75-3.04-6.75-6.78"/>
  <path class="cls-2" d="M505.43,200.44c-13.98,0-25.21-11.23-25.21-24.07,0-13.53,10.93-24.9,25.21-24.9h75.42c3.74,0,6.78,3.04,6.78,6.78s-3.04,6.75-6.78,6.75h-75.28c-6.78,0-11.85,5.06-11.85,11.37,0,5.32,5.35,10.53,11.85,10.53h77.15c6.35,0,11.66-5.21,11.66-11.11v-34.12c0-6.05-5.17-11.23-11.66-11.23h-95.61c-3.74,0-6.78-3.01-6.78-6.75s3.04-6.79,6.78-6.79h95.46c13.83,0,25.35,10.82,25.35,24.36v34.81c0,13.54-11.52,24.36-25.35,24.36h-77.14"/>
  <path class="cls-2" d="M234.79,116.91h-75.46c-3.74,0-6.79,3.05-6.79,6.79s3.05,6.75,6.79,6.75h75.57c5.8,0,11.56,4.77,11.56,11.23v33.86c0,6.9-5.95,11.38-11.67,11.38h-77.33c-4.16,0-7.89-2.18-9.96-5.46-1.08-1.72-1.71-3.74-1.71-5.92v-87.42c0-3.74-3.01-6.75-6.78-6.75s-6.75,3.01-6.75,6.75v87.68c0,4.97,1.5,9.6,4.09,13.46,4.51,6.75,12.32,11.19,21.11,11.19h77.18c13.83,0,25.35-10.68,25.35-24.65v-34.27c0-13.68-11.27-24.62-25.21-24.62"/>
  <path class="cls-1" d="M31.81,61.85c0-16.52,13.43-29.95,29.95-29.95s29.94,13.43,29.94,29.95-13.43,29.95-29.94,29.95-29.95-13.44-29.95-29.95M28.75,61.85c0,18.2,14.81,33.01,33.01,33.01s33-14.81,33-33.01-14.8-33.01-33-33.01-33.01,14.81-33.01,33.01Z"/>
  <path class="cls-2" d="M135.48,241.69c.67-1.01,2.42-3.15,4.29-3.15,1.65,0,2.45,2.2,2.45,6.72,0,5.37-1.09,8.09-3.23,8.09-1.94,0-2.93-1.48-3.46-2.28l-.05.07v-9.45M132.51,226.47h-.53l.22,4.62v20.48l-.21,4.55.52.06h2.96v-1.06c.72.77,1.74,1.57,3.68,1.57,4.19,0,6.49-4.07,6.49-11.44,0-6.81-1.82-10.27-5.39-10.27-2.13,0-3.78,1.27-4.78,2.28v-6.18l.21-4.56-.52-.06h-2.66Z"/>
  <path class="cls-2" d="M156.92,234.99c-1.6.11-2.8,1.25-3.78,2.4v-1.89h-3.49l.21,4.62v11.45l-.21,4.56.52.06h3.18l-.22-4.62v-9.45c1.61-2.69,2.72-3.3,3.36-3.3l.76.45.2-.84v-3.47l-.53.04"/>
  <polyline class="cls-2" points="161.06 235.5 160.54 235.5 160.76 240.12 160.76 251.57 160.54 256.12 161.06 256.19 164.25 256.19 164.03 251.57 164.03 240.12 164.24 235.56 163.72 235.5 161.06 235.5"/>
  <polyline class="cls-2" points="163.53 226.47 160.76 226.47 160.76 230.81 164.03 230.81 164.03 226.47 163.53 226.47"/>
  <path class="cls-2" d="M172.34,230.06l-2.18.47s-.38,4.22-.44,4.98h-2.67v3.36h2.63v13.06c0,2.48.36,4.77,2.96,4.77,1.39,0,3.09-1.04,5.05-3.08l.26-.27-.15-.38-1.48-2.51-.45.59c-.56.74-1.95,2.1-2.52,2.1-.41,0-.41-1.62-.41-2.4v-11.89h2.06l2.15.11.13-.5v-3.12l-.68.06-1.6.09h-2.06v-5.58l-.6.13"/>
  <polyline class="cls-2" points="181.16 235.5 180.63 235.5 180.85 240.12 180.85 251.57 180.64 256.13 181.16 256.19 184.34 256.19 184.12 251.57 184.12 240.12 184.33 235.56 183.81 235.5 181.16 235.5"/>
  <polyline class="cls-2" points="183.62 226.47 180.85 226.47 180.85 230.81 184.12 230.81 184.12 226.47 183.62 226.47"/>
  <path class="cls-2" d="M187.91,240.78c0,3.7,2.47,5.09,4.45,6.21,1.67.94,3,1.69,3,3.44,0,2.15-1.51,2.91-2.8,2.91-1.36,0-2.5-.43-3.38-1.3l-.63-.62-.98,3.95.31.19c.68.42,2.18,1.13,4.67,1.13,3.52,0,6.07-2.64,6.07-6.27,0-4.61-2.73-5.99-4.92-7.1-1.62-.82-2.53-1.35-2.53-2.55,0-1.43,1.02-2.44,2.48-2.44s2.26.66,2.63.95l.65.49.25-.72.55-3.11-.34-.16c-1.05-.52-2.35-.8-3.75-.8-2.79,0-5.75,2.03-5.75,5.79"/>
  <path class="cls-2" d="M202.38,226.47h-.53l.22,4.62v20.48l-.21,4.56.52.06h3.18l-.22-4.62v-10.2c1.63-1.81,3.29-3.03,4.42-3.03,1.03,0,1.38.77,1.38,3.03v10.2l-.21,4.56.52.06h3.18l-.22-4.62v-10.2c0-2.07,0-6.38-3.84-6.38-2.07,0-4.06,1.37-5.24,2.43v-6.32l.21-4.57-.52-.06h-2.66"/>
  <path class="cls-2" d="M225.56,240.78c0,3.7,2.47,5.09,4.45,6.21,1.67.94,3,1.69,3,3.44,0,2.15-1.51,2.91-2.81,2.91s-2.52-.45-3.37-1.3l-.62-.63-.99,3.96.31.19c.68.42,2.18,1.13,4.67,1.13,3.52,0,6.08-2.64,6.08-6.27,0-4.61-2.73-5.99-4.93-7.1-1.62-.82-2.53-1.35-2.53-2.55,0-1.43,1.02-2.44,2.49-2.44,1.38,0,2.23.64,2.63.94l.65.49.25-.72.55-3.11-.34-.16c-1.06-.52-2.35-.8-3.75-.8-2.79,0-5.75,2.03-5.75,5.79"/>
  <path class="cls-2" d="M245.54,238.34c2.31,0,2.66,3.84,2.71,5.06-.83-.04-2.71-.14-2.71-.14,0,0-2.36.09-3.33.14.44-3.24,1.52-5.05,3.33-5.05M238.63,245.81c0,6.71,2.38,10.89,6.2,10.89,3.11,0,5.78-2.4,6.78-3.31l.3-.27.06-.59-1.47-2.52-.47.49c-.59.62-2.67,2.65-4.55,2.65-2.18,0-3.31-2.25-3.39-6.58.69-.03,3.45-.14,3.45-.14l4.44.11,1.74.06v-.52c0-2.74,0-11.09-6.18-11.09-3.19,0-6.91,2.83-6.91,10.82Z"/>
  <path class="cls-2" d="M254.83,245.81c0,6.81,2.25,10.89,6.01,10.89,2.98,0,5.42-2.29,6.34-3.14l.29-.28.02-.55-1.5-2.6-.46.58c-.41.51-2.3,2.43-4.04,2.43-2.14,0-3.22-2.47-3.22-7.33,0-3.41.63-7.47,3.61-7.47l3.89.92.23-.45.67-2.94-.61-.14-3.84-.75c-3.36,0-7.37,1.88-7.37,10.82"/>
  <path class="cls-2" d="M279.31,235.5h-.53l.22,4.62v10.2c-1.65,1.81-3.31,3.03-4.42,3.03-1.04,0-1.38-.73-1.38-3.03v-10.2l.21-4.56-.52-.06h-3.18l.22,4.62v10.2c0,2.07,0,6.38,3.84,6.38,2.06,0,4.06-1.37,5.23-2.43v1.91h3.49l-.22-4.62v-11.45l.21-4.56-.52-.06h-2.66"/>
  <path class="cls-2" d="M294.73,234.99c-1.59.11-2.79,1.25-3.78,2.41v-1.9h-3.49l.21,4.62v11.45l-.21,4.56.52.06h3.18l-.22-4.62v-9.32c1.31-2.27,2.44-3.43,3.36-3.43l.75.44.2-.83v-3.47l-.53.04"/>
  <polyline class="cls-2" points="298.89 235.5 298.36 235.5 298.58 240.12 298.58 251.57 298.37 256.13 298.89 256.19 302.06 256.19 301.85 251.57 301.85 240.12 302.06 235.55 301.54 235.5 298.89 235.5"/>
  <polyline class="cls-2" points="301.35 226.47 298.58 226.47 298.58 230.81 301.85 230.81 301.85 226.47 301.35 226.47"/>
  <path class="cls-2" d="M310.15,230.06l-2.18.47s-.37,4.22-.44,4.98h-2.66v3.36h2.62v13.06c0,2.48.36,4.77,2.97,4.77,1.38,0,3.13-1.07,5.06-3.1l.26-.27-.15-.36-1.48-2.51-.45.59c-.69.88-1.98,2.1-2.53,2.1-.41,0-.41-1.55-.41-2.4v-11.89h2.06l2.15.11.13-.5v-3.12l-.68.06-1.61.09h-2.06v-5.58l-.61.13"/>
  <path class="cls-2" d="M319.47,235.5h-3.28l.92,2.86s5,16.68,5.02,16.76c-.08,0-1.19,3.96-1.19,3.96-.56,1.91-.84,2.43-1.72,2.43l-1.84-.51-.37.4-.62,2.84.42.07,2.75.55c2.67,0,3.45-1.96,4.21-4.52l6.04-20.43s.18-.66.18-.66l1.18-3.71-.67-.04h-2.99l-.94,4.14s-2.06,7.81-2.69,10.2c-.71-2.37-3.06-10.21-3.06-10.21,0-.01-.69-2.96-.69-2.96l-.22-1.17h-.42"/>
  <polyline class="cls-2" points="341.5 235.5 340.97 235.5 341.19 240.12 341.19 251.57 340.97 256.12 341.5 256.19 344.68 256.19 344.46 251.57 344.46 240.12 344.67 235.56 344.15 235.5 341.5 235.5"/>
  <polyline class="cls-2" points="343.96 226.47 341.19 226.47 341.19 230.81 344.46 230.81 344.46 226.47 343.96 226.47"/>
  <path class="cls-2" d="M352.92,237.41v-1.91h-3.49l.21,4.62v11.45l-.21,4.57.52.05h3.19l-.22-4.62v-10.2c1.64-1.8,3.29-3.03,4.43-3.03,1.03,0,1.37.77,1.37,3.03v10.2l-.21,4.56.53.06h3.16l-.2-4.62v-10.2c0-2.07,0-6.38-3.84-6.38-2.07,0-4.06,1.37-5.24,2.43"/>
  <path class="cls-2" d="M369.47,246.44c0-5.37,1.09-8.1,3.23-8.1,1.93,0,2.88,1.42,3.45,2.27l.06-.07v9.47c-.67,1.01-2.42,3.14-4.3,3.14-1.66,0-2.45-2.19-2.45-6.7M376.53,226.47h-.52l.21,4.62v5.47c-.72-.76-1.74-1.57-3.69-1.57-4.19,0-6.5,4.07-6.5,11.46,0,6.8,1.82,10.26,5.4,10.26,2.09,0,3.74-1.23,4.79-2.28v1.77h3.49l-.21-4.62v-20.48l.21-4.56-.52-.06h-2.66Z"/>
  <path class="cls-2" d="M393.51,235.5h-.52l.21,4.62v10.2c-2.31,2.6-3.77,3.03-4.42,3.03-1.04,0-1.39-.76-1.39-3.03v-10.2l.22-4.55-.52-.06h-3.18l.21,4.62v10.2c0,2.07,0,6.38,3.83,6.38,2.07,0,4.06-1.37,5.24-2.43v1.91h3.5l-.24-4.62v-11.45l.23-4.56-.52-.06h-2.67"/>
  <path class="cls-2" d="M400.33,240.78c0,3.7,2.48,5.09,4.46,6.21,1.67.94,3,1.69,3,3.44,0,2.15-1.51,2.91-2.82,2.91-.93,0-2.28-.22-3.37-1.3l-.62-.62-.99,3.95.32.2c.69.41,2.22,1.13,4.67,1.13,3.53,0,6.08-2.64,6.08-6.27,0-4.61-2.72-5.99-4.92-7.1-1.62-.82-2.53-1.35-2.53-2.55,0-1.43,1.02-2.44,2.48-2.44s2.27.66,2.63.95l.67.49.24-.72.55-3.1-.33-.17c-.59-.3-1.86-.8-3.76-.8-2.79,0-5.75,2.03-5.75,5.79"/>
  <path class="cls-2" d="M417.58,230.06l-2.18.47s-.37,4.22-.44,4.98h-2.67v3.36h2.62v13.06c0,2.48.37,4.77,2.97,4.77,1.38,0,3.07-1.03,5.03-3.06l.26-.27-.13-.4-1.49-2.51-.45.59c-.56.74-1.94,2.1-2.52,2.1-.4,0-.4-1.62-.4-2.4v-11.89h2.06l2.15.11.13-.5v-3.12l-.68.06-1.6.09h-2.06v-5.57l-.62.13"/>
  <path class="cls-2" d="M433.21,234.99c-1.59.11-2.9,1.3-3.77,2.3v-1.78h-3.49l.21,4.62v11.45l-.21,4.57.52.05h3.18l-.22-4.62v-9.45c1.62-2.69,2.71-3.3,3.36-3.3l.75.45.19-.84v-3.47l-.53.04"/>
  <path class="cls-2" d="M437.85,235.5h-3.27l.87,2.77s5.03,16.77,5.05,16.85c-.08,0-1.2,3.96-1.2,3.96-.55,1.91-.84,2.43-1.73,2.43l-1.84-.52-.35.4-.64,2.85.42.07,2.75.55c2.67,0,3.46-1.96,4.2-4.52h0s6.03-20.42,6.03-20.42c0,0,.21-.77.21-.77l1.14-3.59-.67-.04h-2.99l-.93,4.14s-1.84,6.99-2.68,10.19c-.71-2.38-3.06-10.21-3.06-10.21,0,0-.69-3.01-.69-3.01l-.21-1.12h-.41"/>
  <path class="cls-2" d="M461.49,251.05c0-3.64,3.38-4.86,6.44-5.25v3.84c-.74,1.11-2.84,3.7-4.94,3.7-.78,0-1.5-.28-1.5-2.29M459.35,237.79l-.33.23,1.37,3.17.51-.42c1.11-.9,3.53-2.44,5.54-2.44,1.04,0,1.48.39,1.48,2.79v1.53c-7.96,1.08-9.72,5.14-9.72,8.4,0,3.43,1.88,5.65,4.78,5.65,1.71,0,3.43-1.23,4.94-3.08v2.56h3.49l-.22-4.55v-10.51c0-1.99,0-6.14-4.76-6.14-2.65,0-5.32,1.52-7.1,2.81Z"/>
  <path class="cls-2" d="M474.99,240.78c0,3.7,2.47,5.09,4.45,6.21,1.67.94,2.99,1.69,2.99,3.44,0,2.15-1.5,2.91-2.78,2.91-1.35,0-2.52-.45-3.38-1.3l-.62-.62-.99,3.95.3.19c.68.42,2.19,1.13,4.69,1.13,3.51,0,6.06-2.64,6.06-6.27,0-4.61-2.73-5.99-4.92-7.1-1.61-.82-2.52-1.35-2.52-2.55,0-1.43,1.01-2.44,2.47-2.44,1.38,0,2.23.64,2.64.94l.65.49.25-.72.55-3.11-.34-.16c-1.08-.53-2.34-.8-3.75-.8-2.78,0-5.75,2.03-5.75,5.79"/>
  <path class="cls-2" d="M487.72,240.78c0,3.7,2.48,5.09,4.46,6.21,1.68.94,2.99,1.69,2.99,3.44,0,2.15-1.51,2.91-2.8,2.91-1.35,0-2.49-.43-3.37-1.3l-.63-.62-.99,3.95.32.19c.85.51,2.36,1.13,4.67,1.13,3.53,0,6.08-2.64,6.08-6.27,0-4.61-2.73-5.99-4.93-7.1-1.61-.82-2.53-1.35-2.53-2.55,0-1.43,1.02-2.44,2.48-2.44s2.27.67,2.64.95l.64.5.26-.73.55-3.11-.33-.17c-1.07-.52-2.36-.8-3.76-.8-2.78,0-5.75,2.03-5.75,5.79"/>
  <path class="cls-2" d="M504.09,245.92c0-3.46.64-7.58,3.72-7.58s3.71,4.12,3.71,7.58-.64,7.42-3.71,7.42-3.72-4.04-3.72-7.42M500.66,245.92c0,8.9,3.88,10.78,7.14,10.78,3.44,0,7.14-3.37,7.14-10.78,0-9.04-3.89-10.94-7.14-10.94-3.44,0-7.14,3.42-7.14,10.94Z"/>
  <path class="cls-2" d="M517.6,245.81c0,6.81,2.25,10.89,6,10.89,2.99,0,5.43-2.28,6.35-3.14l.29-.27.03-.55-1.5-2.59-.47.57s-2.05,2.44-4.04,2.44c-2.14,0-3.22-2.47-3.22-7.33,0-3.41.63-7.47,3.61-7.47l3.89.92.23-.45.66-2.94-.62-.14-3.84-.75c-3.37,0-7.38,1.88-7.38,10.82"/>
  <polyline class="cls-2" points="533.15 235.5 532.62 235.5 532.84 240.12 532.84 251.57 532.63 256.12 533.15 256.19 536.32 256.19 536.11 251.57 536.11 240.12 536.32 235.56 535.79 235.5 533.15 235.5"/>
  <polyline class="cls-2" points="535.6 226.47 532.84 226.47 532.84 230.81 536.11 230.81 536.11 226.47 535.6 226.47"/>
  <path class="cls-2" d="M543.34,251.05c0-3.64,3.38-4.86,6.44-5.25v3.84c-.75,1.11-2.84,3.7-4.94,3.7-.78,0-1.5-.28-1.5-2.29M541.21,237.79l-.32.24,1.36,3.17.51-.42c1.03-.84,3.51-2.44,5.55-2.44,1.01,0,1.47.41,1.47,2.79v1.53c-7.96,1.07-9.72,5.13-9.72,8.4s1.88,5.65,4.79,5.65c1.7,0,3.42-1.22,4.94-3.07v2.56h3.49l-.2-4.55v-10.51c0-1.99,0-6.14-4.76-6.14-2.85,0-5.68,1.76-7.1,2.81Z"/>
  <path class="cls-2" d="M561.36,230.06l-2.18.47s-.38,4.22-.44,4.98h-2.67v3.36h2.63v13.06c0,2.48.36,4.77,2.97,4.77,1.37,0,3.06-1.03,5.01-3.05l.27-.28-.12-.41-1.5-2.52-.45.61c-.47.64-1.9,2.09-2.51,2.09-.4,0-.4-1.62-.4-2.4v-11.89h2.05l2.15.11.14-.5v-3.12l-.69.06-1.6.09h-2.05v-5.58l-.61.13"/>
  <polyline class="cls-2" points="570.18 235.5 569.65 235.5 569.88 240.12 569.88 251.57 569.66 256.12 570.18 256.19 573.36 256.19 573.14 251.57 573.14 240.12 573.36 235.57 572.84 235.5 570.18 235.5"/>
  <polyline class="cls-2" points="572.64 226.47 569.88 226.47 569.88 230.81 573.14 230.81 573.14 226.47 572.64 226.47"/>
  <path class="cls-2" d="M580.57,245.92c0-3.46.64-7.58,3.71-7.58s3.71,4.12,3.71,7.58-.64,7.42-3.71,7.42-3.71-4.04-3.71-7.42M577.14,245.92c0,8.9,3.89,10.78,7.14,10.78,3.44,0,7.15-3.37,7.15-10.78,0-9.04-3.88-10.94-7.15-10.94-3.44,0-7.14,3.42-7.14,10.94Z"/>
  <path class="cls-2" d="M598.55,237.41v-1.91h-3.51l.22,4.62v11.45l-.21,4.55.51.06h3.19l-.21-4.62v-10.2c1.61-1.77,3.3-3.03,4.43-3.03,1.03,0,1.37.77,1.37,3.03v10.2l-.2,4.55.51.06h3.17l-.2-4.62v-10.2c0-2.07,0-6.38-3.84-6.38-2.08,0-4.07,1.37-5.24,2.43"/>
  <path class="cls-1" d="M61.57,36.22c-4.56,0-8.83,1.19-12.55,3.26.03.01.06.03.08.04.21.09.42.19.62.3.08.05.16.1.25.15.14.08.27.17.39.27.08.06.16.11.24.18.16.13.32.28.47.43.09.09.16.18.24.27.08.09.15.18.23.28.13.16.24.34.35.51.06.1.12.2.18.3.07.13.13.26.19.39.04.09.07.18.11.27.08.21.15.43.21.66.03.11.06.22.08.34.03.13.04.27.06.4.02.15.03.3.04.45,0,.08.02.16.02.25,0,.41-.04.81-.12,1.2-.55,2.7-2.93,4.73-5.79,4.73s-5.13-1.94-5.75-4.55c-3.34,4.35-5.35,9.78-5.35,15.69,0,14.25,11.55,25.81,25.81,25.81s25.81-11.56,25.81-25.81-11.56-25.82-25.81-25.82ZM61.54,72.79c-6.15,0-11.14-5-11.14-11.15s4.99-11.15,11.14-11.15,11.15,5,11.15,11.15-4.99,11.15-11.15,11.15Z"/>
</svg>